<?xml version="1.0" encoding="UTF-8"?>
<svg id="Livello_2" data-name="Livello 2" xmlns="http://www.w3.org/2000/svg" viewBox="0 0 54.28 80.27">
  <defs>
    <style>
      .cls-1 {
        stroke-width: 0px;
      }
    </style>
  </defs>
  <g id="Livello_1-2" data-name="Livello 1">
    <path class="cls-1" d="m25.42,65.74v-9.44c-2.45-.34-4.86-.61-7.24-1.03C4.29,52.83-2.36,42.17.76,26.8c1.18-5.84,2.67-11.72,4.92-17.22,1.11-2.73,2.73-5.16,6.57-6.69,9.47-3.78,19.68-3.63,29.5-.86,2.54.71,6.95,2.69,6.6,5.72-.12,2.26-3.94,4.97-7.31,5.66-8.16,1.67-17.69,2.07-28.96-.74l.48-1.98h0c5.44.5,10.89,1.53,16.31,1.34h0c15.34-.13,15.89-3.02,15.77-4.38-.18-1.65-2.72-2.46-4.58-2.88-8.78-2-17.56-1.66-26.19.85-1.63.48-3.81,1.74-4.3,2.98C3.05,25.07,2.17,32.19,3.35,37.22c2.22,9.48,8.89,15.57,22.18,14.96-1.12-1.46-3.66-2.82-5.24-3.52-13.37-5.98-16.77-14.38-11.18-28.18h0c23.65,5.3,42.73-1.67,42.73-1.67h0s2.35,8.05,2.44,14.09c.19,13.35-6.11,20.14-18.29,22.35q-7.02,1.27-6.87,8.48c.01.66.1,1.32.16,2.15,3.83.93,7.82,1.43,11.39,2.94,1.94.82,4.06,2.14,4.24,3.86.45,4.18-5.76,5.91-14.74,7.35t-1.05.21c-1.37.18-1.54-1.79-.33-1.9,12.91-1.66,13.41-4.9,13.26-5.81h0c-.07-3.08-12.79-3.46-12.79-3.46,1.53,11.49-13.34,9.15-13.34,9.15-3.41-.91-4.31-3.19-4.34-4.16-.06-2.06,1.03-3.92,2.5-4.8,4.06-2.41,7.18-2.31,11.34-3.53ZM11.75,23.9c-3.71,11.1-1.07,17.01,8.69,21.43,2.62,1.19,4.83,2.4,7.24,4.94,1.2,1.27,3.21,2.18,4.78,2.11,15.69-.7,19.36-12.89,16.88-29.65-11.94,4.5-24.97,4.58-37.6,1.17Zm2.42,49.27h0c0,5.18,15.72,2.05,11.1-3.65-2.41-3.13-10.99.4-11.1,3.65Z"/>
  </g>
</svg>