<?xml version="1.0" encoding="UTF-8"?>
<svg id="Livello_2" data-name="Livello 2" xmlns="http://www.w3.org/2000/svg" viewBox="0 0 55.18 38.8">
  <defs>
    <style>
      .cls-1 {
        fill: #fff;
        stroke-width: 0px;
      }
    </style>
  </defs>
  <g id="Livello_1-2" data-name="Livello 1">
    <g>
      <path class="cls-1" d="m55.18,34.7c-.14.42-.29.84-.46,1.34-5.53-5.64-11.01-11.23-16.37-16.7,5.28-5.39,10.77-10.98,16.34-16.67.2.57.35,1,.5,1.42v30.61Z"/>
      <path class="cls-1" d="m2.69.37C3.45.23,4.08.01,4.7.01c15.27-.02,30.53-.02,45.8,0,.62,0,1.24.23,1.98.37-.23.25-.35.38-.47.51-6.9,6.87-13.8,13.73-20.7,20.6-1.48,1.48-3.21,2.11-5.24,1.42-.74-.25-1.47-.72-2.02-1.27C17.01,14.69,10.01,7.7,2.99.72c-.06-.06-.12-.13-.3-.35Z"/>
      <path class="cls-1" d="m52.18,38.48c-.5.08-1.2.29-1.89.3-4.63.03-9.27.02-13.9.02-10.45,0-20.9,0-31.36-.01-.73,0-1.47-.19-2.14-.29,5.54-5.65,11.02-11.24,16.56-16.9.77.78,1.42,1.52,2.16,2.16.75.65,1.53,1.34,2.41,1.78,3.22,1.61,6.75.97,9.39-1.62.74-.73,1.47-1.47,2.26-2.27,5.52,5.63,11.01,11.23,16.5,16.83Z"/>
      <path class="cls-1" d="m16.82,19.45C11.52,24.86,6.04,30.44.56,36.03l-.19-.05c-.12-.6-.36-1.2-.36-1.8-.02-9.86-.02-19.72,0-29.58,0-.59.22-1.18.37-1.92,5.6,5.71,11.08,11.3,16.43,16.76Z"/>
    </g>
  </g>
</svg>