<svg xmlns="http://www.w3.org/2000/svg" viewBox="0 0 204.48 182.01">
  <defs>
    <style>
      .cls-1 {
        fill: #fff;
      }
    </style>
  </defs>
  <g id="Livello_2" data-name="Livello 2">
    <g id="Livello_1-2" data-name="Livello 1">
      <g id="Livello_1-2-2" data-name="Livello 1-2">
        <path class="cls-1" d="M0,55.2c.66-3.43,1.12-6.91,2-10.28C8.21,21.89,22.2,6.36,46,1.3,66-3,83,3.43,96.94,18.28c1.81,1.93,3.44,4,5.27,6.21,1.53-1.84,3-3.7,4.57-5.45,8.62-9.57,19-16.21,31.86-18.22,15.14-2.36,29.1.85,41.49,9.92,13.22,9.67,20.59,23.08,23.33,39,3.12,18.12-1,34.81-10.92,50.16-8.74,13.54-20,24.84-32,35.42-16.4,14.48-33,28.69-49.59,43-5.65,4.89-11.77,4.92-17.42,0C76.88,164,60.13,149.68,43.64,135.1,31.76,124.6,20.56,113.41,11.92,100,5.81,90.45,1.64,80.21.4,68.89A15.26,15.26,0,0,0,0,67.17v-12ZM102.17,169.88h0"/>
      </g>
    </g>
  </g>
</svg>
