<?xml version="1.0" encoding="UTF-8"?>
<svg id="Livello_2" data-name="Livello 2" xmlns="http://www.w3.org/2000/svg" viewBox="0 0 46.27 42.45">
  <defs>
    <style>
      .cls-1 {
        fill: #fff;
        stroke-width: 0px;
      }
    </style>
  </defs>
  <g id="Livello_1-2" data-name="Livello 1">
    <path class="cls-1" d="m0,21.77c.21-.27.39-.57.62-.81,1.11-1.13,2.23-2.24,3.35-3.36.7-.7,1.31-.7,2.02,0,1.19,1.19,2.38,2.39,3.58,3.58.35.35.46.77.32,1.24-.13.44-.46.66-.88.75-.43.09-.79-.08-1.1-.38-.56-.56-1.12-1.13-1.68-1.69-.04.01-.08.03-.13.04.05.78.07,1.57.16,2.35.34,2.9,1.33,5.57,2.92,8.01,1.45,2.24,3.3,4.09,5.54,5.55,2.21,1.45,4.63,2.42,7.25,2.83,3.63.57,7.16.18,10.55-1.29,2.71-1.18,5.03-2.88,6.93-5.14,2.46-2.92,3.96-6.28,4.38-10.1.43-3.89-.25-7.58-2.1-11.03-1.55-2.89-3.72-5.24-6.49-7.02-2.22-1.42-4.62-2.4-7.22-2.76-6.06-.85-11.4.74-15.93,4.9-.2.18-.38.39-.59.56-.53.46-1.22.45-1.66-.01-.44-.46-.41-1.16.07-1.66,1.51-1.53,3.2-2.82,5.1-3.84C18.45.68,22.12-.16,26,.02c9.98.46,17.82,7.64,19.7,16.46,1.69,7.92-.44,14.77-6.31,20.36-3.28,3.13-7.27,4.9-11.78,5.45-10.64,1.28-20.45-5.44-23.15-15.86-.42-1.62-.6-3.28-.65-4.95,0-.1-.02-.2-.03-.42-.35.35-.64.64-.93.93-.22.22-.45.45-.67.67C1.36,23.49.61,23.4,0,22.41,0,22.2,0,21.98,0,21.77Z"/>
    <path class="cls-1" d="m33.16,14.37c-.18.3-.32.64-.55.88-.97,1.01-1.97,1.99-2.96,2.98-3.57,3.57-7.13,7.14-10.71,10.69-.26.26-.64.46-.99.54-.44.1-.83-.13-1.05-.54-.22-.41-.2-.84.06-1.23.07-.11.17-.21.27-.3,4.57-4.57,9.13-9.13,13.7-13.7.29-.29.59-.5,1.02-.49.64.02,1.11.49,1.21,1.18Z"/>
    <path class="cls-1" d="m23.89,16.58c0,2.24-1.86,4.11-4.1,4.1-2.24,0-4.06-1.82-4.08-4.07-.02-2.24,1.82-4.12,4.07-4.14,2.23-.02,4.1,1.85,4.11,4.1Zm-4.09,1.78c1,0,1.78-.78,1.79-1.76,0-.99-.81-1.79-1.82-1.78-.98,0-1.78.81-1.77,1.79.01.99.8,1.76,1.79,1.76Z"/>
    <path class="cls-1" d="m30.32,29.93c-2.25-.02-4.09-1.84-4.07-4.08.02-2.36,1.9-4.1,4.11-4.09,2.27.01,4.09,1.86,4.07,4.12-.02,2.24-1.87,4.06-4.11,4.05Zm1.8-4.06c.01-.98-.76-1.78-1.76-1.8-.96-.02-1.8.78-1.81,1.75-.02.99.8,1.83,1.78,1.83.97,0,1.78-.8,1.79-1.78Z"/>
  </g>
</svg>