<svg xmlns="http://www.w3.org/2000/svg" viewBox="0 0 336.35 383.16">
  <g id="Livello_2" data-name="Livello 2">
    <g id="Livello_1-2" data-name="Livello 1">
      <g id="Livello_2-2" data-name="Livello 2">
        <g id="Livello_1-2-2" data-name="Livello 1-2">
          <path d="M239.51,0C241.67,42.4,261.9,72.43,301,89.28c11.09,4.78,22.88,6.72,35.31,6.7v62.39c-35.65-.2-67.61-11.16-96.73-32.74v4.71q.24,65.86.48,131.75c.13,57.18-36.55,104.42-92.25,117.72-66.24,15.83-131.92-25.95-145.46-92C-10.45,225,29.69,163.82,93,149.07a120.84,120.84,0,0,1,42-2.17,29.47,29.47,0,0,1,3.06.71v62.58c-6.25-.7-12.37-1.95-18.5-2-28.14-.13-52.36,21.74-55.44,49.71a56.59,56.59,0,0,0,49.58,62.81c1.76.2,3.53.33,5.3.37,30.59,1,57.26-24,57.63-54.67.4-32.94.21-65.88.22-98.81V4.78a45,45,0,0,1,.5-4.78Z"/>
        </g>
      </g>
    </g>
  </g>
</svg>
