<?xml version="1.0" encoding="UTF-8"?>
<svg id="Livello_2" data-name="Livello 2" xmlns="http://www.w3.org/2000/svg" viewBox="0 0 68.47 86.45">
  <defs>
    <style>
      .cls-1 {
        fill: #fff;
        stroke-width: 0px;
      }
    </style>
  </defs>
  <g id="Livello_1-2" data-name="Livello 1">
    <path class="cls-1" d="m20.93,0c4.53,2.16,8.2,5.31,10.72,9.66.96,1.66,1.62,3.5,2.41,5.26.08.17.14.35.24.6,2.77-4.5,6.73-7.29,11.62-8.81,1.44-.45,2.93-.77,4.43-.94,1.4-.17,2.55.94,2.64,2.26.09,1.44-.82,2.52-2.26,2.77-1.05.18-2.11.37-3.12.69-4.43,1.41-7.93,3.94-9.7,8.41-.45,1.13-.69,2.34-1.04,3.58,2.73.55,5.03,1.66,7.04,3.34,7.48-6.15,17.82-3.89,22.38,3.56,4.57,7.46,1.84,17.63-7.03,21.54.11.81.25,1.64.33,2.46.64,6.71-3.38,13.05-9.74,15.3-.61.22-.8.49-.76,1.13.39,7.54-4.91,13.88-11.98,15.35-8.07,1.67-16.42-4.14-17.52-12.32-.15-1.08-.14-2.18-.16-3.28,0-.42-.1-.62-.53-.78-5.45-2.03-8.72-5.93-9.86-11.62-.38-1.9-.29-3.81.16-5.68.11-.47,0-.64-.4-.83-4.76-2.25-7.61-6-8.57-11.15-1.48-7.91,4.46-15.99,12.46-17.06,4.46-.6,8.39.54,11.89,3.37.65-.47,1.31-.94,1.94-1.4-1.21-1.09-2.5-2.1-3.61-3.27-5.31-5.6-6.88-12.23-5.28-19.7.25-1.16.86-1.98,1.96-2.44h1.35Zm13.37,28.35c-5.32-.03-9.8,4.41-9.82,9.74-.03,5.32,4.41,9.79,9.74,9.82,5.32.03,9.79-4.41,9.82-9.74.03-5.32-4.41-9.79-9.74-9.82Zm-13.02,17.08c-2.53-4.86-2.54-9.75,0-14.6-3.39-3.44-9.65-3.23-13.28.41-3.81,3.83-3.79,10.1.07,13.85,3.99,3.89,9.98,3.45,13.21.35Zm25.95-14.59c2.53,4.85,2.52,9.72,0,14.57,3.12,3.08,9.17,3.61,13.2-.33,3.88-3.78,3.88-10.14,0-13.92-4.02-3.92-10.05-3.42-13.2-.33Zm-3.32,18.58c-2.35,1.95-5.01,3.12-8.01,3.5-.22.03-.56.35-.58.56-.1,1.22-.34,2.49-.15,3.68.91,5.56,5.74,9,11.31,8.17,5.38-.81,9.18-6.51,7.85-11.77-.11-.43-.29-.58-.74-.58-3.63.03-6.81-1.2-9.68-3.55Zm-19.31.01c-3.4,2.57-5.45,3.32-9.76,3.53-.49.02-.67.25-.67.65-.02,1.39-.25,2.84.04,4.17.81,3.76,3.16,6.3,6.88,7.32,3.75,1.03,7.04.04,9.75-2.76.19-.19.33-.63.24-.85-1.09-2.75-1.44-5.57-.91-8.5.04-.2-.19-.61-.37-.67-1.91-.63-3.64-1.6-5.21-2.9Zm19.28,21.14c-3.69-.3-6.9-1.75-9.63-4.37-2.71,2.66-5.93,4.08-9.63,4.37-.57,2.59.81,6.75,4.05,8.99,3.3,2.29,7.75,2.32,11.08.05,3.34-2.28,4.67-6.39,4.13-9.04Zm-13.8-49.14c-.5-6.14-3.03-11.03-7.89-14.78-.54,5.32,2.27,11.35,7.89,14.78Z"/>
  </g>
</svg>