<svg xmlns="http://www.w3.org/2000/svg" viewBox="0 0 145.6 145.5">
  <defs>
    <style>
      .cls-1 {
        fill: #fff;
      }
    </style>
  </defs>
  <g id="Livello_2" data-name="Livello 2">
    <g id="Livello_1-2" data-name="Livello 1">
      <path class="cls-1" d="M112.81,145.5H32.68c-.31-.1-.6-.23-.92-.3a55.89,55.89,0,0,1-6.6-1.5C12.26,139.1,4.09,130.15.83,116.8c-.32-1.31-.56-2.65-.83-4V32.7c.1-.35.21-.7.3-1.05C1.19,28.43,1.64,25,3.05,22,9.78,7.73,21.15.17,37,.07,60.8-.08,84.57.06,108.33,0a35.47,35.47,0,0,1,17.34,4.05C137.86,10.71,145.1,21,145.35,34.91c.44,25.22.19,50.46.05,75.69a30.69,30.69,0,0,1-1.73,9.71c-4.5,12.94-13.51,21.09-26.87,24.35C115.48,145,114.14,145.22,112.81,145.5ZM72.75,133.29v0q17.76,0,35.51,0a33.67,33.67,0,0,0,4.38-.28c11.46-1.52,20.59-11.64,20.62-23.16.08-24.66,0-49.33,0-74a27,27,0,0,0-.27-3.1c-1.31-11-11.68-20.47-22.7-20.51-24.81-.08-49.62,0-74.43,0a23.17,23.17,0,0,0-3.1.27C21.49,14,12.27,24.19,12.23,35.59c-.08,24.72,0,49.43,0,74.14a24.82,24.82,0,0,0,.26,3c1.38,11.18,11.66,20.49,22.92,20.58C47.85,133.36,60.3,133.29,72.75,133.29Z"/>
      <path class="cls-1" d="M72.72,36.4A36.37,36.37,0,1,1,36.38,72.75,36.36,36.36,0,0,1,72.72,36.4Zm0,12.19a24.18,24.18,0,1,0,24.2,24.12A24.13,24.13,0,0,0,72.73,48.59Z"/>
      <path class="cls-1" d="M112.15,42.45a9.06,9.06,0,0,1-9.08-9.1,9.17,9.17,0,0,1,9.09-9.13,9.3,9.3,0,0,1,9.14,9.15A9.17,9.17,0,0,1,112.15,42.45Z"/>
    </g>
  </g>
</svg>
