<svg xmlns="http://www.w3.org/2000/svg" viewBox="0 0 53.56 103.39">
  <g id="Livello_2" data-name="Livello 2">
    <g id="Livello_1-2" data-name="Livello 1">
      <g id="Livello_2-2" data-name="Livello 2">
        <g id="Livello_1-2-2" data-name="Livello 1-2">
          <path d="M15.68,103.35c0-.33.09-.66.09-1v-46H0V37.82H15.78V36.5c0-4.74,0-9.48.13-14.22.2-5.87,1.93-11.23,6.06-15.6a21.1,21.1,0,0,1,11.25-6C37.15-.22,41.12,0,45.08.11c2.81.1,5.61.36,8.48.55V17.17h-2.1c-3.1,0-6.19,0-9.28.18-4.64.23-6.94,2.21-7.24,6.82s-.07,9-.07,13.62H53c-.81,6.22-1.59,12.3-2.39,18.47H34.9c0,.33-.07.56-.07.78v46.35Z"/>
        </g>
      </g>
    </g>
  </g>
</svg>
