<?xml version="1.0" encoding="UTF-8"?>
<svg id="Livello_2" data-name="Livello 2" xmlns="http://www.w3.org/2000/svg" viewBox="0 0 104.22 104.18">
  <defs>
    <style>
      .cls-1 {
        fill: #fff;
        stroke-width: 0px;
      }
    </style>
  </defs>
  <g id="Livello_1-2" data-name="Livello 1">
    <g>
      <path class="cls-1" d="m24.19,7.42c0-1.51-.02-2.66,0-3.82C24.24,1.54,25.87-.01,27.95,0c2.01.01,3.63,1.57,3.67,3.57.03,1.16,0,2.32,0,3.57h40.94c0-1.1,0-2.21,0-3.32.02-2.25,1.59-3.84,3.77-3.83,2.1.02,3.65,1.62,3.67,3.82,0,1.08,0,2.16,0,3.42,1.79,0,3.51,0,5.24,0,3.11.01,6.1.59,8.83,2.09,6.46,3.56,10.06,9.01,10.09,16.44.09,20,.04,39.99.03,59.99,0,10.09-8.33,18.41-18.42,18.42-22.44.01-44.88.01-67.33,0C8.35,104.17.01,95.85,0,85.78c-.01-20.04,0-40.07,0-60.11C.01,16.42,7.19,8.37,16.39,7.46c2.52-.25,5.09-.04,7.8-.04ZM7.44,37.21c0,.48,0,.83,0,1.17,0,15.54,0,31.07,0,46.61,0,6.93,4.83,11.74,11.78,11.74,21.93,0,43.86,0,65.8-.01,1.07,0,2.18-.11,3.22-.37,5.23-1.31,8.51-5.68,8.51-11.3.01-15.57,0-31.15,0-46.72v-1.12H7.44Zm.04-7.71h89.2c.35-3.97-.1-6.8-1.42-9.11-2.73-4.76-9.32-7.12-15.25-5.42,0,1.1.01,2.23,0,3.35-.03,2.07-1.64,3.71-3.66,3.74-2.05.04-3.74-1.64-3.77-3.75-.02-1.15,0-2.3,0-3.46H31.63c0,1.21.01,2.34,0,3.46-.03,2.12-1.71,3.79-3.77,3.75-2.02-.03-3.63-1.68-3.66-3.75-.02-1.15,0-2.3,0-3.49-2.18,0-4.23-.08-6.27.02-3.75.17-6.6,1.97-8.68,5.06-1.96,2.92-1.9,6.2-1.76,9.6Z"/>
      <path class="cls-1" d="m47.01,73.41c-.35-.33-.67-.61-.96-.9-3.21-3.2-6.4-6.41-9.62-9.6-1.72-1.7-4.05-1.8-5.58-.27-1.55,1.54-1.44,3.84.28,5.57,4.29,4.3,8.59,8.6,12.9,12.9,1.94,1.94,4,1.92,5.97-.04,2.66-2.65,5.31-5.31,7.97-7.97,5.04-5.04,10.07-10.09,15.12-15.11,1.14-1.14,1.65-2.44,1.19-3.99-.85-2.87-4.25-3.54-6.51-1.29-6.61,6.59-13.2,13.2-19.8,19.8-.3.3-.6.58-.96.92Z"/>
      <path class="cls-1" d="m47.01,73.41c.36-.34.67-.62.96-.92,6.6-6.6,13.2-13.2,19.8-19.8,2.26-2.25,5.65-1.58,6.51,1.29.46,1.56-.04,2.86-1.19,3.99-5.05,5.02-10.09,10.07-15.12,15.11-2.66,2.66-5.31,5.32-7.97,7.97-1.97,1.96-4.03,1.98-5.97.04-4.3-4.29-8.6-8.59-12.9-12.9-1.72-1.72-1.83-4.02-.28-5.57,1.53-1.53,3.86-1.43,5.58.27,3.22,3.19,6.41,6.4,9.62,9.6.29.29.61.57.96.9Z"/>
    </g>
  </g>
</svg>