<?xml version="1.0" encoding="UTF-8"?>
<svg id="Livello_2" data-name="Livello 2" xmlns="http://www.w3.org/2000/svg" viewBox="0 0 60.84 60.25">
  <defs>
    <style>
      .cls-1 {
        fill: #fff;
        stroke-width: 0px;
      }
    </style>
  </defs>
  <g id="Livello_1-2" data-name="Livello 1">
    <path class="cls-1" d="m25.91,60.25c-1.65-.55-2.44-2.01-3.38-3.28-1.57-2.12-2.86-4.41-3.92-6.83-.32-.74-.19-1.29.4-1.57.6-.29,1.11-.02,1.49.74.57,1.15,1.15,2.3,1.76,3.43.09.17.34.36.52.37.95.04,1.9.02,2.9.02-.54-1.69-1.07-3.33-1.61-5.03-.3,0-.64.02-.97,0-.65-.04-1.08-.46-1.09-1.03,0-.57.42-1,1.07-1.05.2-.02.4,0,.59,0,10.83,0,21.66,0,32.49.01.56,0,.8-.15.92-.7.16-.76.42-1.51.65-2.32h-.81c-10.36,0-20.71,0-31.07,0-.18,0-.36,0-.53,0-.59-.03-1.03-.47-1.04-1.01,0-.54.43-1,1.03-1.01,1.84-.02,3.68-.01,5.52-.02.23,0,.47,0,.78,0,0-.4,0-.77,0-1.14-.04-2.67-.09-5.34-.13-8.02,0-.23,0-.49.09-.7.19-.45.56-.66,1.05-.6.52.06.82.38.89.88.04.27,0,.55.01.83.04,2.71.09,5.42.12,8.14,0,.44.11.62.6.61,2.53-.03,5.07-.03,7.6,0,.49,0,.6-.17.6-.61-.01-4.28-.02-8.55,0-12.83,0-.61-.2-.76-.79-.75-1.84.04-3.68.01-5.52.01-.14,0-.28,0-.42,0-.79-.03-1.25-.42-1.24-1.06.01-.63.49-1.02,1.27-1.02,7.01,0,14.02,0,21.03,0h.95c-.28-.99-.54-1.91-.82-2.82-.02-.08-.17-.15-.27-.16-.15-.03-.32-.01-.47-.01-7.03,0-14.06,0-21.09,0-.18,0-.36.01-.53,0-.57-.05-.98-.45-1.01-.98-.03-.54.32-.96.91-1.06.21-.04.43-.04.65-.04,1.98,0,3.96,0,5.94,0,.21,0,.43,0,.77,0-.25-1.72-.48-3.36-.72-5.04-1.96,0-3.84,0-5.72.02-.13,0-.34.23-.37.39-.12.56-.18,1.13-.28,1.7-.11.63-.58,1.04-1.14.97-.6-.07-.97-.55-.89-1.24.07-.59.17-1.17.26-1.8-.19-.01-.36-.03-.53-.03-.93,0-1.87.06-2.79-.02-1.12-.1-1.97.04-2.22,1.38-.11.58-.78.79-1.3.59-.54-.22-.78-.76-.57-1.37.2-.56.42-1.11.64-1.66.34-.83.53-.95,1.42-.95,7.98,0,15.96,0,23.94,0,.21,0,.42,0,.82,0-.81-1.02-1.48-1.94-2.25-2.77-.22-.23-.73-.25-1.11-.25-6-.01-12,0-18-.01-.24,0-.48,0-.71-.03-.56-.08-.91-.47-.92-.99,0-.53.39-.97.94-1.04.16-.02.32,0,.47,0,6.12,0,12.24,0,18.36,0,1.22,0,2.16.45,2.93,1.39,4.33,5.33,7.09,11.37,8.18,18.16.21,1.33.32,2.67.49,4,.02.15.07.3.11.45v4.75c-.04.17-.09.34-.11.52-.12,1.06-.21,2.13-.36,3.18-.88,6.2-3.14,11.85-6.79,16.93-.94,1.31-1.75,2.81-3.44,3.37h-24.24Zm25.36-19.3c.08-.82.15-1.64.23-2.46.36-3.74.22-7.47-.16-11.19-.04-.37-.19-.5-.57-.49-2,.02-4,0-5.99.01-.09,0-.19.02-.23.03v14.11h6.72Zm-27.49,14.29c.69.88,1.26,1.71,1.93,2.44.26.28.73.52,1.11.52,7.48.03,14.96.03,22.44.01.28,0,.66-.06.82-.24.75-.85,1.45-1.75,2.25-2.74h-28.55Zm29.55-28.42c.56,4.76.54,9.44,0,14.17,1.56,0,3.02.01,4.48-.02.14,0,.37-.26.4-.43.16-1.05.3-2.11.41-3.17.36-3.4.16-6.79-.42-10.15-.03-.15-.26-.38-.4-.38-1.46-.03-2.92-.02-4.49-.02Zm-18.97,21.33c0,.11-.03.19-.02.26.2,1.47.4,2.93.63,4.4.02.13.29.31.44.31,1.74.02,3.48,0,5.22.02.33,0,.45-.12.49-.44.09-.7.23-1.4.33-2.11.11-.81.2-1.62.29-2.45h-7.39Zm15.55-28.5c-.6-1.68-1.15-3.25-1.72-4.82-.03-.1-.2-.21-.3-.21-1.58-.01-3.15,0-4.75,0,.24,1.72.48,3.37.71,5.03h6.06Zm-6.76,33.48c1.59,0,3.17,0,4.74,0,.11,0,.27-.11.31-.2.57-1.57,1.12-3.14,1.7-4.78h-6.04c-.23,1.65-.46,3.29-.71,4.99Zm-16.98-5c.57,1.63,1.1,3.17,1.67,4.7.05.15.35.28.54.28,1.19.03,2.37.01,3.56.01.32,0,.65,0,.98,0-.25-1.73-.48-3.36-.71-5h-6.04Zm30.05-28.47c-.88-1.7-1.67-3.24-2.48-4.78-.06-.11-.19-.25-.28-.26-1.02-.02-2.03-.01-3.05-.01.51,1.64,1,3.21,1.5,4.76.04.12.2.27.3.27,1.26.02,2.53.01,4.02.01Zm0,28.45c-1.42,0-2.6.02-3.79-.01-.37,0-.5.14-.6.46-.42,1.37-.87,2.74-1.31,4.1-.04.14-.07.28-.12.46,1.01,0,1.96,0,2.91-.01.15,0,.36-.1.42-.22.82-1.54,1.61-3.1,2.49-4.79Z"/>
    <path class="cls-1" d="m18,14.19c-.25,1.46-.5,2.97-.77,4.54,1.72.38,3.04,1.21,4.05,2.62,1.13-1.55,2.61-2.45,4.46-2.67,1.25-.14,2.44.13,3.55.72,2.17,1.16,3.42,3.62,3.13,6.13-.31,2.67-2.2,4.56-5.36,5.33.54,1.82.42,3.59-.6,5.23-1.03,1.64-2.54,2.56-4.46,2.84.79,3.07.02,5.57-2.67,7.29-2.04,1.3-4.74,1.14-6.7-.29-2.14-1.55-2.91-3.98-2.19-6.98-1.87-.31-3.41-1.18-4.44-2.82-1.03-1.64-1.18-3.4-.62-5.26C2.22,30.17.26,28.35.02,25.04c-.21-2.84,1.68-5.09,3.79-5.95,1.99-.8,5.1-.71,7.37,2.23.97-1.36,2.29-2.21,3.94-2.57-.19-2.05-.94-3.81-2.28-5.32-2.28,1.68-5.15,1.62-7.7-.06-2.21-1.45-3.19-3.64-3.82-6.07-.1-.4-.19-.81-.3-1.21-.15-.54.02-.99.42-1.34.41-.36.9-.36,1.39-.16.2.08.39.19.58.3,1.07.63,2.16.93,3.45.71,2.02-.34,3.54.68,4.82,2.12.84.96,1.55,2,1.77,3.3.02.12.12.24.21.34.76.85,1.53,1.69,2.27,2.51.33-.49.33-.84,0-1.45-.86-1.59-.81-3.27-.26-4.9,1.33-3.97,4.1-6.42,8.23-7.16C25.51.11,27.17.11,28.8,0c.59-.04,1.11.16,1.37.74.27.59.09,1.12-.3,1.6-.51.63-1.02,1.26-1.52,1.9-.62.8-.85,1.73-.86,2.72-.05,2.75-1.64,4.49-3.85,5.78-1.23.72-2.53,1.31-3.98,1.44-.5.05-1.02,0-1.66,0Zm2.25,26.88c.06-2.18-1.7-4.06-3.82-4.11-2.33-.06-4.15,1.62-4.22,3.89-.07,2.27,1.67,4.13,3.93,4.19,2.2.06,4.05-1.72,4.11-3.97Zm-9.09-12.22c-2.03,0-3.75,1.48-4.02,3.47-.28,2.03,1.04,3.97,3.05,4.47.79.19,1.5.19,2.18-.47.47-.47,1.17-.7,1.76-1.06.22-.14.47-.31.58-.52,1.45-2.66-.5-5.88-3.55-5.88Zm10.13,0c-3.05,0-5.01,3.24-3.55,5.89.12.22.37.38.58.52.68.43,1.36.86,2.06,1.26.31.17.67.37,1,.37,2.22,0,3.96-1.84,3.94-4.1-.02-2.2-1.8-3.95-4.04-3.94Zm.97-4.11c.12.5.2,1,.36,1.48.16.49.46.83,1,1.06.68.28,1.25.8,1.88,1.2.19.12.4.26.61.27,2.27.17,4.19-1.57,4.3-3.86.11-2.22-1.75-4.16-4.02-4.18-2.21-.03-4.05,1.8-4.13,4.03Zm-12.08.01c-.07-2.2-1.75-3.93-3.98-4.04-2.1-.1-3.9,1.52-4.15,3.75-.22,1.95,1.31,3.93,3.32,4.27.68.12,1.33.11,1.9-.49.39-.41.95-.73,1.49-.93.64-.23.96-.64,1.12-1.24.12-.43.2-.88.29-1.32Zm2.03.06c0,.12,0,.32.04.51.17.88.39,1.68,1.42,2.04.61.21,1.14.69,1.66,1.11.49.39,1.28.38,1.77.03.65-.47,1.36-.86,2.03-1.31.26-.18.56-.38.7-.65.77-1.46.5-3.28-.62-4.52-1.09-1.2-2.88-1.62-4.4-1.04-1.6.62-2.59,2.05-2.6,3.83Zm5.27-14.96c.09-.17.19-.33.28-.5,1.15-2.06,2.78-3.63,4.89-4.68.7-.35,1.29-.21,1.58.37.28.56.05,1.07-.61,1.45-.48.27-.97.54-1.41.87-1.63,1.21-2.77,2.77-3.45,4.73.19.01.33.03.46.02,1.77-.12,3.25-.93,4.58-2.01,1.08-.88,1.67-2,1.65-3.45-.02-1.47.55-2.77,1.44-3.93.14-.18.27-.36.44-.58-6.47-.29-9.85,3.89-9.86,7.7Zm-6.48,2.17c-.88-.14-1.76-.32-2.64-.42-.85-.1-1.28-.44-1.24-1.11.03-.65.51-1.02,1.36-.97.72.05,1.44.17,2.22.27-.29-.36-.54-.73-.85-1.03-.71-.68-1.49-1.31-2.55-1.16-1.29.19-2.54.25-3.77-.37.56,3.74,4.91,6.6,7.47,4.78Z"/>
    <path class="cls-1" d="m16.25,42.01c0,.54-.48,1.01-1.03,1.01-.57,0-1.06-.49-1.04-1.05.02-.55.49-.98,1.06-.97.56,0,1.02.48,1.01,1.01Z"/>
    <path class="cls-1" d="m11.17,33.87c0,.54-.45,1.03-.99,1.05-.54.02-1.02-.43-1.04-.98-.02-.59.42-1.07,1-1.07.55,0,1.02.45,1.03,1.01Z"/>
    <path class="cls-1" d="m20.31,32.86c.56.01.99.47.98,1.04,0,.56-.46,1.02-1.01,1.02-.56,0-1.04-.51-1.02-1.08.02-.55.49-1,1.05-.98Z"/>
    <path class="cls-1" d="m26.38,25.76c0,.56-.44,1.02-.99,1.04-.55.02-1.02-.42-1.04-.98-.02-.59.44-1.08,1.01-1.08.54,0,1.01.48,1.02,1.02Z"/>
    <path class="cls-1" d="m5.1,26.79c-.56.02-1.03-.42-1.05-.98-.02-.56.46-1.08,1.02-1.08.55,0,1,.46,1.01,1.02,0,.57-.42,1.02-.98,1.04Z"/>
    <path class="cls-1" d="m15.19,26.79c-.54-.01-1.02-.49-1.01-1.03,0-.53.49-1.02,1.03-1.03.56,0,1.07.52,1.04,1.07-.02.54-.51,1-1.05.99Z"/>
  </g>
</svg>