<svg xmlns="http://www.w3.org/2000/svg" viewBox="0 0 336.34 383.17">
  <defs>
    <style>
      .cls-1 {
        fill: #fff;
      }
    </style>
  </defs>
  <g id="Livello_2" data-name="Livello 2">
    <g id="Livello_1-2" data-name="Livello 1">
      <path class="cls-1" d="M239.5,0c2.16,42.4,22.39,72.43,61.53,89.28,11.09,4.78,22.88,6.72,35.31,6.7v62.39c-35.65-.2-67.61-11.16-96.73-32.74,0,2.07,0,3.39,0,4.71q.24,65.86.48,131.75c.13,57.18-36.55,104.42-92.25,117.72-66.24,15.83-131.92-25.95-145.46-92C-10.46,225,29.68,163.82,93,149.07a120.93,120.93,0,0,1,42-2.17,29.87,29.87,0,0,1,3.06.71v62.58c-6.25-.7-12.37-1.95-18.5-2-28.14-.13-52.36,21.74-55.44,49.71A56.58,56.58,0,0,0,119,321.08c30.59,1,57.26-24,57.63-54.67.4-32.94.21-65.88.22-98.81q0-81.42,0-162.82A45.54,45.54,0,0,1,177.35,0Z"/>
    </g>
  </g>
</svg>
