<svg xmlns="http://www.w3.org/2000/svg" viewBox="0 0 145.6 145.51">
  <g id="Livello_2" data-name="Livello 2">
    <g id="Livello_1-2" data-name="Livello 1">
      <g id="Livello_2-2" data-name="Livello 2">
        <g id="Livello_1-2-2" data-name="Livello 1-2">
          <path d="M112.81,145.51H32.68c-.31-.1-.6-.23-.92-.3a57.28,57.28,0,0,1-6.6-1.5c-12.9-4.6-21.07-13.55-24.33-26.9-.32-1.31-.56-2.65-.83-4V32.71c.1-.35.21-.7.3-1.05C1.19,28.44,1.64,25,3.05,22,9.78,7.74,21.15.18,37,.08,60.8-.07,84.57.07,108.33,0a35.45,35.45,0,0,1,17.34,4.05c12.19,6.66,19.43,17,19.68,30.86.44,25.22.19,50.46.05,75.69a30.59,30.59,0,0,1-1.73,9.71c-4.5,12.94-13.51,21.09-26.87,24.35C115.48,145,114.14,145.23,112.81,145.51ZM72.75,133.3h35.51a33.79,33.79,0,0,0,4.38-.28c11.46-1.52,20.59-11.64,20.62-23.16.08-24.66,0-49.33,0-74a26.83,26.83,0,0,0-.27-3.1c-1.31-11-11.68-20.47-22.7-20.51-24.81-.08-49.62,0-74.43,0a23,23,0,0,0-3.1.27C21.49,14,12.27,24.2,12.23,35.6c-.08,24.72,0,49.43,0,74.14a25.12,25.12,0,0,0,.26,3c1.38,11.18,11.66,20.49,22.92,20.58C47.85,133.37,60.3,133.3,72.75,133.3Z"/>
          <path d="M72.72,36.41a36.37,36.37,0,1,1-36.34,36.4v0A36.36,36.36,0,0,1,72.72,36.41Zm0,12.19a24.18,24.18,0,1,0,24.2,24.16v0A24.13,24.13,0,0,0,72.78,48.6h-.06Z"/>
          <path d="M112.15,42.46a9.06,9.06,0,0,1-9.08-9v-.06a9.16,9.16,0,0,1,9.09-9.13,9.3,9.3,0,0,1,9.14,9.15A9.17,9.17,0,0,1,112.15,42.46Z"/>
        </g>
      </g>
    </g>
  </g>
</svg>
