<svg xmlns="http://www.w3.org/2000/svg" viewBox="0 0 383.37 306.97">
  <defs>
    <style>
      .cls-1 {
        fill: #fff;
      }
    </style>
  </defs>
  <g id="Livello_2" data-name="Livello 2">
    <g id="Livello_1-2" data-name="Livello 1">
      <path class="cls-1" d="M383.37,158a64.23,64.23,0,0,1-3,5.84c-4.08,6.28-10.09,9-17.44,9q-27.12,0-54.25,0-143.66,0-287.31,0c-9,0-16.06-3.4-19.76-11.94C-3.76,148.57,5,135,18.76,134.23c1.37-.08,2.75,0,4.12,0q167.77,0,335.57-.13c11.87,0,20.6,3.34,24.92,15Z"/>
      <path class="cls-1" d="M383.37,292c-1.41,2.58-2.53,5.38-4.29,7.69-3.6,4.72-8.63,7-14.55,7.23-.75,0-1.5,0-2.25,0H21C10.42,307,2.9,301.44.53,292c-2.6-10.37,4.7-21.5,15.26-23.12a50.11,50.11,0,0,1,7.45-.47q168.2,0,336.38-.12c11.76,0,20,3.95,23.75,15.53Z"/>
      <path class="cls-1" d="M383.37,23.3c-1.83,3.21-3.24,6.78-5.58,9.54-4.07,4.8-9.85,5.92-15.93,5.91q-40,0-80.07,0-129.47,0-258.93,0A35.06,35.06,0,0,1,14,37.82,19.14,19.14,0,0,1,.21,16.57C1.38,7.62,9.52.42,18.8.15c1.37,0,2.74,0,4.11,0q168,0,336-.14c11.83,0,20.29,3.57,24.45,15.07Z"/>
    </g>
  </g>
</svg>
