<svg xmlns="http://www.w3.org/2000/svg" viewBox="0 0 510.7 331.55">
  <g id="Livello_2" data-name="Livello 2">
    <g id="Livello_1-2" data-name="Livello 1">
      <g id="Livello_2-2" data-name="Livello 2">
        <g id="Livello_1-2-2" data-name="Livello 1-2">
          <path d="M0,174.73c2-8.87,3.57-17.85,6-26.59a119.73,119.73,0,0,1,22.59-43.42c2.34-2.9,2-4.9.15-7.74C20.57,84.27,12.59,71.42,4.55,58.62c-1-1.66-2-3.36-3.67-6.09H7.3q50.4,0,100.79-.09c2.29,0,5.11-.64,6.76-2.06,27.06-23.26,58.34-37.83,93-45.19q74.1-15.69,143,16a170.22,170.22,0,0,1,42.69,28.18,12.91,12.91,0,0,0,7.87,3c34.77.2,69.53.13,104.29.14,1.47,0,3,.13,5.05.23-.93,1.7-1.54,3-2.3,4.19-8.9,14.22-17.76,28.47-26.83,42.58-1.65,2.57-1.48,4.24.29,6.57,21.16,27.82,30.26,59.43,26.82,94-4.27,42.82-24.9,76.57-60.88,100.34-27.07,17.88-57.12,24.67-89.3,20.86-28.5-3.38-53.5-15-74.77-34.28-2.21-2-4.33-4.1-6.88-6.51l-22.17,51.06-21.83-50.06c-9.36,7.05-18.06,14.59-27.67,20.71C147.64,338.8,68.44,323.81,27.58,269,13,249.44,3.91,227.71,1,203.43a13.51,13.51,0,0,0-1-2.75Zm239.57,12.75A104.76,104.76,0,0,0,135.08,82.78C77.2,82.59,29.73,129.62,30,187.41s46.2,104.72,105,104.8C192.82,292.29,239.57,245,239.57,187.48ZM374.64,82.78A104.51,104.51,0,0,0,269.72,186.86v.71c-.24,57.61,47.12,104.88,104.7,104.66a104.73,104.73,0,0,0,.22-209.45ZM161.19,54.44c41.39,9.91,72.5,33.29,93.56,71.2a135.51,135.51,0,0,1,39.46-46.43C310.57,67,329,59,349,54.33,286.51,21.93,224.05,22.13,161.19,54.44Z"/>
          <path d="M205.72,187.48a70.94,70.94,0,1,1-141.87,1.35c0-.55,0-1.11,0-1.66.08-39.1,32.18-71.09,71.08-70.83A71,71,0,0,1,205.72,187.48ZM134.9,146.61a41,41,0,0,0-41.1,40.73c-.08,22.28,18.46,41.32,40.87,41,24.15-.29,40.81-19,41-40.83a40.76,40.76,0,0,0-40.62-40.9Z"/>
          <path d="M445.62,187.44a71.09,71.09,0,1,1-142.17,1.43c0-.55,0-1.11,0-1.67.09-39,32.3-71,71.18-70.86C413.79,116.52,445.64,148.43,445.62,187.44Zm-70.54-40.82c-21.34-.45-41.44,16-41.43,40.75,0,23,17.07,40.76,40.77,40.94,24.32.17,40.71-19.43,40.92-40.28a40.7,40.7,0,0,0-40-41.4Z"/>
          <path d="M135,171.77a15.7,15.7,0,0,1-.21,31.39c-8.54,0-16-7.4-15.86-15.85A15.93,15.93,0,0,1,135,171.77Z"/>
          <path d="M375.07,171.77a15.61,15.61,0,1,1-15.63,15.92A15.9,15.9,0,0,1,375.07,171.77Z"/>
        </g>
      </g>
    </g>
  </g>
</svg>
