<?xml version="1.0" encoding="UTF-8"?>
<svg id="Livello_2" data-name="Livello 2" xmlns="http://www.w3.org/2000/svg" viewBox="0 0 38.21 53.9">
  <defs>
    <style>
      .cls-1 {
        fill: #fff;
        stroke-width: 0px;
      }
    </style>
  </defs>
  <g id="Livello_1-2" data-name="Livello 1">
    <path class="cls-1" d="m10.89,53.9v-1.67h7.34v-19.2c-.39-.04-.8-.08-1.21-.14-5.33-.78-9.42-3.57-12.56-7.84-2.02-2.75-3.33-5.82-3.98-9.17C-.56,10.5.09,5.33,2.44.37,2.57.1,2.72,0,3.03,0,13.74,0,24.46,0,35.18,0c.31,0,.45.1.59.38,1.64,3.38,2.47,6.96,2.44,10.71-.03,5.57-1.69,10.62-5.23,14.97-2.92,3.59-6.63,5.93-11.22,6.77-.58.11-1.18.14-1.79.21v19.17h8.08v1.7H10.89ZM1.99,7.22c2.3-.58,4.47-1.2,6.67-1.67,2.85-.61,5.72-1.08,8.65-.58,2,.34,3.61,1.24,3.98,3.5.17,1.01.79,1.56,1.7,1.86,1.32.43,2.67.34,4.01.18,3.06-.37,5.97-1.3,8.87-2.3.37-.13.43-.32.37-.66-.32-1.85-.79-3.65-1.53-5.39-.16-.37-.33-.49-.72-.48-5.07.01-10.14,0-15.21,0-4.88,0-9.75,0-14.63,0-.35,0-.54.08-.65.43-.27.83-.62,1.64-.87,2.47-.26.86-.43,1.75-.65,2.64Z"/>
  </g>
</svg>