<svg xmlns="http://www.w3.org/2000/svg" viewBox="0 0 212.89 189.5">
  <defs>
    <style>
      .cls-1 {
        fill: #fff;
      }
    </style>
  </defs>
  <g id="Livello_2" data-name="Livello 2">
    <g id="Livello_1-2" data-name="Livello 1">
      <g id="Livello_1-2-2" data-name="Livello 1-2">
        <path class="cls-1" d="M0,57.47c.69-3.57,1.17-7.19,2.1-10.7,6.45-24,21-40.15,45.74-45.42C68.72-3.09,86.43,3.57,100.93,19c1.88,2,3.58,4.21,5.48,6.47,1.6-1.92,3.12-3.86,4.76-5.68,9-10,19.75-16.87,33.17-19,15.76-2.45,30.3.89,43.2,10.33,13.76,10.07,21.43,24,24.29,40.61C215.08,70.65,210.78,88,200.46,104c-9.1,14.1-20.85,25.86-33.32,36.88-17.07,15.07-34.4,29.86-51.63,44.77-5.88,5.09-12.25,5.13-18.13.05-17.34-15-34.78-29.87-51.95-45.05-12.36-10.94-24-22.59-33-36.59-6.36-9.9-10.7-20.56-12-32.35A17.12,17.12,0,0,0,0,69.93V57.46ZM106.35,176.86c.38-.29.6-.44.81-.62,15.84-13.66,31.72-27.27,47.49-41,10.35-9,20.31-18.44,28.9-29.2,8-10,14.34-20.83,16.08-33.83,1.93-14.47-.66-27.95-9-40.1C175.58,10.07,142.31,4.6,122,26.8a129,129,0,0,0-8.71,11.34c-2.71,3.71-6.84,5.1-10.47,2.92a13.17,13.17,0,0,1-3.92-4.14A60.94,60.94,0,0,0,84.59,21.13,40.86,40.86,0,0,0,55,12.92,44,44,0,0,0,25.41,28c-7,7.9-10.76,17.24-12.23,27.63A57.2,57.2,0,0,0,18,88.37,91.51,91.51,0,0,0,36.77,114.6c9.91,9.86,20.16,19.39,30.6,28.69,12.78,11.37,25.9,22.33,39,33.58Z"/>
      </g>
    </g>
  </g>
</svg>
