<svg xmlns="http://www.w3.org/2000/svg" viewBox="0 0 53.56 103.36">
  <defs>
    <style>
      .cls-1 {
        fill: #fff;
      }
    </style>
  </defs>
  <g id="Livello_2" data-name="Livello 2">
    <g id="Livello_1-2" data-name="Livello 1">
      <path class="cls-1" d="M15.68,103.36c0-.33.09-.66.09-1q0-22.5,0-45v-1H0V37.83H15.78c0-.53,0-.92,0-1.32,0-4.74,0-9.48.13-14.22.2-5.87,1.93-11.23,6.06-15.6A21.1,21.1,0,0,1,33.22.64C37.15-.21,41.12,0,45.08.12c2.81.1,5.61.36,8.48.55V17.18h-2.1c-3.1.05-6.19,0-9.28.18-4.64.23-6.94,2.21-7.24,6.82s-.07,9-.07,13.62H53c-.81,6.22-1.59,12.3-2.39,18.47H34.9c0,.33-.07.56-.07.78V103c0,.13,0,.27,0,.4Z"/>
    </g>
  </g>
</svg>
