<svg xmlns="http://www.w3.org/2000/svg" viewBox="0 0 383.37 306.91">
  <g id="Livello_2" data-name="Livello 2">
    <g id="Livello_1-2" data-name="Livello 1">
      <g id="Livello_2-2" data-name="Livello 2">
        <g id="Livello_1-2-2" data-name="Livello 1-2">
          <path d="M383.37,158a63,63,0,0,1-3,5.84c-4.08,6.28-10.09,9-17.44,9H21.37c-9,0-16.06-3.4-19.76-11.94C-3.76,148.56,5,135,18.76,134.22c1.37-.08,2.75,0,4.12,0q167.77,0,335.57-.13c11.87,0,20.6,3.34,24.92,15Z"/>
          <path d="M383.37,292c-1.41,2.58-2.53,5.38-4.29,7.69-3.6,4.72-8.63,7-14.55,7.23H21C10.42,307,2.9,301.43.53,292c-2.6-10.37,4.7-21.5,15.26-23.12a50.2,50.2,0,0,1,7.45-.47q168.2,0,336.38-.12c11.76,0,20,4,23.75,15.53Z"/>
          <path d="M383.37,23.29c-1.83,3.21-3.24,6.78-5.58,9.54-4.07,4.8-9.85,5.92-15.93,5.91h-339A34.76,34.76,0,0,1,14,37.81,19.13,19.13,0,0,1,.21,16.56C1.38,7.61,9.52.41,18.8.14h4.11q168,0,336-.14c11.83,0,20.29,3.57,24.45,15.07Z"/>
        </g>
      </g>
    </g>
  </g>
</svg>
