<svg xmlns="http://www.w3.org/2000/svg" viewBox="0 0 510.7 331.51">
  <defs>
    <style>
      .cls-1 {
        fill: #fff;
      }
    </style>
  </defs>
  <g id="Livello_2" data-name="Livello 2">
    <g id="Livello_1-2" data-name="Livello 1">
      <path class="cls-1" d="M0,174.73c2-8.87,3.57-17.85,6-26.59a119.66,119.66,0,0,1,22.59-43.42c2.34-2.9,2-4.9.15-7.74C20.57,84.27,12.59,71.42,4.55,58.62c-1-1.66-2-3.36-3.67-6.09H7.3c33.6,0,67.2,0,100.79-.09,2.29,0,5.11-.64,6.76-2.06,27.06-23.26,58.34-37.83,93-45.19C257.25-5.27,305,.08,350.8,21.19a170.11,170.11,0,0,1,42.69,28.18,12.92,12.92,0,0,0,7.87,3c34.77.2,69.53.13,104.29.14,1.47,0,3,.13,5.05.23-.93,1.7-1.54,3-2.3,4.19-8.9,14.22-17.76,28.47-26.83,42.58-1.65,2.57-1.48,4.24.29,6.57,21.16,27.82,30.26,59.43,26.82,94-4.27,42.82-24.9,76.57-60.88,100.34-27.07,17.88-57.12,24.67-89.3,20.86C330,317.9,305,306.28,283.73,287c-2.21-2-4.33-4.1-6.88-6.51l-22.17,51.06-21.83-50.06c-9.36,7.05-18.06,14.59-27.67,20.71C147.64,338.8,68.44,323.81,27.58,269,13,249.44,3.91,227.71,1,203.43A13.19,13.19,0,0,0,0,200.68Zm239.57,12.75A104.75,104.75,0,0,0,135.08,82.78C77.2,82.59,29.73,129.62,30,187.41s46.2,104.72,105,104.8C192.82,292.29,239.57,245,239.57,187.48ZM374.64,82.78A104.5,104.5,0,0,0,269.72,187.57c-.24,57.61,47.12,104.88,104.7,104.66a104.73,104.73,0,0,0,.22-209.45ZM161.19,54.44c41.39,9.91,72.5,33.29,93.56,71.2a135.57,135.57,0,0,1,39.46-46.43C310.57,67,329,59,349,54.33,286.51,21.93,224.05,22.13,161.19,54.44Z"/>
      <path class="cls-1" d="M205.72,187.48a70.94,70.94,0,1,1-141.87-.31c.08-39.1,32.18-71.09,71.08-70.83A71,71,0,0,1,205.72,187.48ZM134.9,146.61a41,41,0,0,0-41.1,40.73c-.08,22.28,18.46,41.32,40.87,41,24.15-.29,40.81-19,41-40.83A40.76,40.76,0,0,0,134.9,146.61Z"/>
      <path class="cls-1" d="M445.62,187.44a71.09,71.09,0,1,1-142.17-.24c.09-39,32.3-71,71.18-70.86C413.79,116.52,445.64,148.43,445.62,187.44Zm-70.54-40.82c-21.34-.45-41.44,16-41.43,40.75,0,23,17.07,40.76,40.77,40.94,24.32.17,40.71-19.43,40.92-40.28A40.7,40.7,0,0,0,375.08,146.62Z"/>
      <path class="cls-1" d="M135,171.77a15.7,15.7,0,0,1-.21,31.39c-8.54,0-16-7.4-15.86-15.85A15.93,15.93,0,0,1,135,171.77Z"/>
      <path class="cls-1" d="M375.07,171.77a15.9,15.9,0,0,1,16,15.62,15.82,15.82,0,0,1-31.63.3A15.87,15.87,0,0,1,375.07,171.77Z"/>
    </g>
  </g>
</svg>
