<?xml version="1.0" encoding="UTF-8"?>
<svg id="Livello_2" data-name="Livello 2" xmlns="http://www.w3.org/2000/svg" viewBox="0 0 71.41 71.42">
  <defs>
    <style>
      .cls-1 {
        stroke-width: 0px;
      }
    </style>
  </defs>
  <g id="Livello_1-2" data-name="Livello 1">
    <g>
      <path class="cls-1" d="m17.87,0c.67.49.86,1.14.85,1.97-.03,5.46,0,10.92-.03,16.38-.02,3.44-1.62,5.98-4.61,7.63-.43.24-.56.49-.56.96.01,13.4,0,26.81,0,40.21,0,1.72-.78,3-2.28,3.78-1.48.77-2.98.65-4.34-.33-1.19-.85-1.75-2.04-1.75-3.52,0-13.33,0-26.67.02-40,0-.58-.16-.87-.68-1.17C1.59,24.25.04,21.72.02,18.35,0,12.89.03,7.43,0,1.97,0,1.14.18.49.85,0h1.12c.67.49.86,1.14.85,1.97-.04,4.57-.02,9.15-.02,13.73v.72h2.51v-.79c0-4.55.02-9.1-.02-13.66,0-.83.18-1.48.85-1.97h1.12c.67.49.86,1.14.85,1.97-.04,4.57-.02,9.15-.02,13.73,0,.24,0,.49,0,.72h2.51v-.79c0-4.55.02-9.1-.02-13.66,0-.83.18-1.48.85-1.97h1.12c.67.49.86,1.14.85,1.97-.04,4.57-.02,9.15-.02,13.73,0,.24,0,.49,0,.72h2.51v-.79c0-4.55.02-9.1-.02-13.66,0-.83.18-1.48.85-1.97h1.12ZM2.89,19.26c.46,2.23,1.68,3.72,3.71,4.52,1.21.48,1.37.67,1.37,2,0,13.59,0,27.18,0,40.78,0,.32,0,.66.08.97.25.93,1.25,1.33,2.03.83.61-.39.68-.99.68-1.65,0-13.71,0-27.42,0-41.13,0-1.05.24-1.39,1.23-1.75.33-.12.65-.25.95-.42,1.59-.93,2.56-2.28,2.88-4.15H2.89Z"/>
      <path class="cls-1" d="m71.41,68.04c-.39,1.09-.9,2.08-1.94,2.7-1.38.83-2.82.91-4.23.14-1.41-.77-2.19-1.99-2.19-3.62-.01-6.62-.01-13.24,0-19.86,0-.53-.15-.91-.54-1.27-.76-.71-1.5-1.46-2.22-2.22-1.34-1.41-2-3.09-2-5.04,0-6.09-.07-12.17.02-18.26.13-8.43,3.73-15.12,10.51-20.11.22-.16.42-.34.63-.5.65,0,1.3,0,1.95,0v68.04Zm-2.79-63.75c-.21.18-.3.25-.39.33-4.71,4.4-7.06,9.86-7.13,16.28-.06,5.92-.01,11.85-.01,17.77,0,1.39.47,2.58,1.48,3.56.88.86,1.73,1.75,2.62,2.6.47.45.66.95.66,1.61-.02,6.74-.01,13.47,0,20.21,0,.34.02.7.12,1.03.19.6.67.91,1.27.91.6,0,1.08-.31,1.27-.91.1-.32.12-.68.12-1.03,0-20.51,0-41.02,0-61.53v-.82Z"/>
      <path class="cls-1" d="m35.69,15.89c10.98,0,19.83,8.84,19.83,19.82,0,10.93-8.87,19.77-19.81,19.77-10.97,0-19.8-8.86-19.79-19.86,0-10.89,8.87-19.73,19.77-19.73Zm17.04,19.77c-.02-9.35-7.73-17.02-17.06-16.98-9.33.04-16.96,7.68-16.97,17,0,9.33,7.69,17.03,17.02,17.02,9.34,0,17.03-7.71,17-17.04Z"/>
      <path class="cls-1" d="m35.74,62.41c-5.15-.08-9.89-1.46-14.25-4.17-.59-.36-.93-.85-.81-1.56.11-.6.5-1.05,1.1-1.11.4-.04.88.09,1.23.3,2.68,1.64,5.54,2.78,8.65,3.28,7.13,1.14,13.54-.52,19.15-5.06,1.27-1.03,2.35-2.3,3.49-3.49.72-.75,1.45-.91,2.13-.36.65.52.68,1.39.05,2.16-4.4,5.35-10,8.61-16.86,9.63-1.28.19-2.58.25-3.87.37Z"/>
      <path class="cls-1" d="m35.43,9.02c7.7.11,14.05,2.76,19.31,8.01.23.23.45.48.58.77.27.59.04,1.29-.49,1.66-.56.39-1.27.31-1.84-.19-1.1-.96-2.14-2-3.31-2.87-3.55-2.63-7.55-4.07-11.95-4.44-4.43-.38-8.62.44-12.61,2.38-.56.27-1.1.37-1.64,0-.46-.32-.74-.8-.57-1.32.14-.42.44-.92.81-1.11,2.82-1.46,5.82-2.38,8.99-2.7.99-.1,1.99-.14,2.72-.19Z"/>
      <path class="cls-1" d="m16.47,53.54c0-.8.6-1.41,1.4-1.4.8,0,1.45.67,1.44,1.48-.01.75-.63,1.38-1.38,1.39-.78.01-1.46-.67-1.46-1.46Z"/>
      <path class="cls-1" d="m22.9,34.63c.42-4.62,2.87-8.43,7.64-10.67.82-.38,1.6-.11,1.96.61.37.75.07,1.53-.8,1.94-2.18,1.02-3.85,2.56-4.94,4.71-.65,1.28-.96,2.65-1.06,4.08-.09,1.27-.53,1.81-1.46,1.78-.92-.03-1.36-.65-1.34-2.45Z"/>
      <path class="cls-1" d="m35.66,25.66c-.79,0-1.42-.63-1.42-1.4,0-.77.64-1.39,1.43-1.39.83,0,1.45.62,1.43,1.44-.02.8-.62,1.36-1.45,1.35Z"/>
    </g>
  </g>
</svg>