<?xml version="1.0" encoding="UTF-8"?>
<svg id="Livello_2" data-name="Livello 2" xmlns="http://www.w3.org/2000/svg" viewBox="0 0 40.11 64.04">
  <defs>
    <style>
      .cls-1 {
        fill: #fff;
        stroke-width: 0px;
      }
    </style>
  </defs>
  <g id="Livello_1-2" data-name="Livello 1">
    <g>
      <path class="cls-1" d="m21.78,0c1.05.2,2.13.33,3.16.63,7.9,2.26,12.99,7.3,14.77,15.38.95,4.3.12,8.48-1.62,12.48-1.26,2.9-3,5.52-4.82,8.08-3.85,5.44-7.7,10.88-11.56,16.31-.97,1.36-2.41,1.36-3.38,0-.04-.05-.07-.1-.11-.15-2.73-3.91-5.47-7.81-8.2-11.72-2.13-3.06-4.34-6.06-6.34-9.2-1.79-2.8-2.97-5.9-3.45-9.22-.82-5.57.49-10.58,4-14.98C7.4,3.65,11.55,1.27,16.51.29c.59-.12,1.18-.2,1.77-.29,1.17,0,2.33,0,3.5,0Zm-1.76,48.68c.15-.2.25-.32.34-.46,3.34-4.7,6.68-9.4,10.01-14.11,1.77-2.5,3.45-5.05,4.57-7.93,1.65-4.24,1.91-8.51.03-12.74C31.04,4.59,20.19,1.12,11.8,5.99c-5.67,3.29-9.14,9.76-7.69,16.83.54,2.62,1.51,5.08,2.96,7.29,2.03,3.1,4.21,6.09,6.34,9.13,2.18,3.12,4.37,6.24,6.61,9.44Z"/>
      <path class="cls-1" d="m33.26,51.52c-.92-.58-1.77-1.11-2.6-1.65-1.04-.67-1.34-1.8-.73-2.74.59-.91,1.72-1.1,2.75-.45,1.68,1.05,3.35,2.11,5.01,3.17,1.38.89,1.41,2.49.03,3.36-5.52,3.5-11.05,6.98-16.57,10.47-.77.49-1.52.46-2.28-.02-5.49-3.47-10.98-6.94-16.47-10.41-1.45-.92-1.45-2.5,0-3.43,1.67-1.06,3.34-2.12,5.02-3.17,1.02-.64,2.15-.42,2.73.52.58.94.28,2.04-.74,2.69-.85.55-1.71,1.08-2.65,1.67,1.25.79,2.41,1.52,3.56,2.25,3.08,1.95,6.16,3.89,9.23,5.84.26.16.46.32.83.08,4.18-2.66,8.37-5.3,12.56-7.95.08-.05.16-.12.31-.24Z"/>
      <path class="cls-1" d="m19.97,30.68c-5.84,0-10.6-4.92-10.46-10.84.13-5.56,4.96-10.25,10.64-10.18,5.88.08,10.44,4.85,10.38,10.86-.06,5.56-4.89,10.22-10.56,10.16Zm.08-17.21c-3.71-.01-6.72,2.96-6.76,6.67-.04,3.66,3.02,6.74,6.69,6.75,3.74.01,6.79-3,6.79-6.71,0-3.69-3.01-6.7-6.72-6.71Z"/>
    </g>
  </g>
</svg>