<?xml version="1.0" encoding="UTF-8"?>
<svg id="Livello_2" data-name="Livello 2" xmlns="http://www.w3.org/2000/svg" viewBox="0 0 38.48 72.57">
  <defs>
    <style>
      .cls-1 {
        fill: #fff;
        stroke-width: 0px;
      }
    </style>
  </defs>
  <g id="Livello_1-2" data-name="Livello 1">
    <g>
      <g>
        <path class="cls-1" d="m5.66,72.57c-.52-.19-1.07-.32-1.57-.56C1.45,70.73,0,68.64,0,65.68,0,46.11,0,26.53,0,6.96,0,3.58,2.07.95,5.36.14,5.46.12,5.56.05,5.66,0c9.05,0,18.11,0,27.16,0,.39.13.79.26,1.18.41,2.68.97,4.48,3.49,4.48,6.34,0,19.69,0,39.39,0,59.08,0,3.14-2.21,5.88-5.28,6.6-.13.03-.25.1-.37.15H5.66ZM9.37,2.27c-.64,0-1.44,0-2.24,0-2.94.01-4.86,1.94-4.86,4.89,0,19.42,0,38.83,0,58.25,0,2.95,1.93,4.89,4.86,4.89,8.09,0,16.17,0,24.26,0,.53,0,1.09-.07,1.6-.22,2.04-.6,3.23-2.35,3.23-4.7,0-19.39,0-38.79,0-58.18,0-.17,0-.33,0-.5-.11-2.22-1.59-4-3.77-4.3-1.15-.16-2.34-.03-3.39-.03-.53,1.15-1.02,2.32-1.6,3.43-.36.69-1.04,1-1.83,1-4.22,0-8.44,0-12.66,0-.71,0-1.37-.25-1.71-.83-.67-1.15-1.21-2.37-1.88-3.7Zm17.18.05h-14.62c.32.68.59,1.31.92,1.9.09.16.35.31.54.31,3.91.02,7.81.02,11.72,0,.17,0,.43-.12.5-.25.33-.61.61-1.26.95-1.95Z"/>
        <path class="cls-1" d="m32.85,36.24c.01.24.04.47.04.71,0,.78-.42,1.28-1.09,1.32-.7.03-1.15-.45-1.24-1.25-.12-1.05-.18-2.12-.45-3.13-1.3-4.83-5.75-8.27-10.75-8.39-.21,0-.43,0-.63-.05-.62-.16-1.03-.72-.96-1.3.07-.61.54-1.03,1.22-1.03,2.2.01,4.28.51,6.25,1.5,3.92,1.97,7.32,6.17,7.61,11.63Z"/>
        <path class="cls-1" d="m19.25,65.77c2.35,0,4.71,0,7.06,0,.92,0,1.4.38,1.42,1.1.02.76-.48,1.16-1.43,1.16-4.76,0-9.51,0-14.27,0-.65,0-1.11-.26-1.25-.9-.13-.6.13-1.07.71-1.3.21-.08.46-.07.69-.07,2.35,0,4.71,0,7.06,0Z"/>
        <path class="cls-1" d="m19.45,27.61c4.89.21,8.98,4.43,8.97,9.27,0,.81-.37,1.31-1.01,1.38-.71.08-1.21-.36-1.27-1.18-.1-1.51-.46-2.93-1.38-4.16-1.26-1.69-2.92-2.69-5.03-2.91-.26-.03-.52-.05-.77-.08-.79-.08-1.26-.57-1.2-1.27.05-.66.55-1.05,1.33-1.05.12,0,.24,0,.35,0Z"/>
        <path class="cls-1" d="m19.17,32.16c2.6.08,4.76,2.31,4.76,4.91,0,.73-.41,1.22-1.05,1.26-.66.05-1.16-.44-1.23-1.17-.14-1.63-1.07-2.6-2.6-2.72-.87-.07-1.35-.53-1.29-1.24.06-.69.57-1.06,1.41-1.04Z"/>
      </g>
      <path class="cls-1" d="m13.64,42.54c.71.7,1.4,1.39,2.04,2.03.55-.35,1.09-.81,1.7-1.06,1.33-.55,2.57-.26,3.63.69.68.61,1.33,1.27,1.95,1.94,1.33,1.46,1.28,3.44-.06,4.9-1.68,1.84-3.67,2.84-6.22,2.52-1.26-.16-2.41-.63-3.32-1.51-2.39-2.34-4.8-4.67-7.09-7.11-2.22-2.37-2.09-6.17.15-8.64.94-1.04,1.92-1.98,3.48-1.91.94.04,1.74.36,2.4,1.03.54.56,1.07,1.13,1.6,1.7,1.5,1.62,1.48,3.53-.03,5.15-.09.1-.19.2-.23.25Zm4.08,8.84c1.41.06,2.54-.74,3.53-1.83.6-.66.61-1.29,0-1.94-.55-.58-1.12-1.15-1.7-1.7-.58-.56-1.24-.57-1.83-.03-.42.39-.8.82-1.23,1.2-.57.52-.95.52-1.49,0-1.27-1.26-2.54-2.52-3.79-3.79-.49-.5-.48-.91,0-1.44.34-.37.71-.71,1.06-1.07.71-.73.71-1.4,0-2.15-.48-.49-.97-.98-1.46-1.46-.76-.75-1.36-.75-2.12-.01-.2.19-.39.38-.58.59-1.6,1.74-1.6,4.35.05,6.02,2.16,2.18,4.36,4.33,6.55,6.48.79.77,1.75,1.14,3.01,1.13Z"/>
    </g>
  </g>
</svg>