<svg xmlns="http://www.w3.org/2000/svg" viewBox="0 0 143.24 143.66">
  <g id="Livello_2" data-name="Livello 2">
    <g id="Livello_2-2" data-name="Livello 2">
      <g id="Livello_1-2" data-name="Livello 1-2">
        <path d="M143.23,82.25l-7.1-2.34c-.84.9-.18,1.36.49,1.9,2.92,2.31,5.45,5,6.2,8.75a14,14,0,0,1-3.62,12.78A5.68,5.68,0,0,0,138,105.5a36.25,36.25,0,0,1-4.45,9.37l-3.85-2.42,3-5.73c-1.54-.93-3.13-1.56-4.22-2.68a6.51,6.51,0,0,1-1.41-3.51,4.59,4.59,0,0,1,2.88-5.11c2.63-1.2,5-.57,7.47,2,2.38-4.26.86-8.36-3.1-11.36-2.54,3-5.05,6-7.61,9a9.3,9.3,0,0,1-2.15,1.91c-1.79,1.09-2.3,2.55-2.23,4.65a15.28,15.28,0,0,1-8.13,14.55c-5.49,3.14-11.1,2.89-16.55-.32-.16-.1-.33-.18-.63-.35-1.22,6.67-4.75,11.46-11.25,13.55s-12.09.29-16.89-4.42a14.15,14.15,0,0,1-21.89,7.07,14.22,14.22,0,0,1-9.32,7.05,14,14,0,0,1-11.41-2.39c-4.2,6.32-9.84,8.9-17.21,6.44A13.57,13.57,0,0,1,0,130.9c-.29-6.81,2.94-11.4,9.1-14.26-2.55-4.28-3.06-8.8-.95-13.39s5.89-7.2,11-8.09A14.61,14.61,0,0,1,19.7,84.7a14.38,14.38,0,0,1,7.67-7.12,17.23,17.23,0,0,1-2-7.79,16.11,16.11,0,0,1,10.2-15A1.78,1.78,0,0,0,37,52.85c.08-9.37,8.41-17.59,17.78-17.73a19.2,19.2,0,0,1,11.48,3.5,19.32,19.32,0,0,1,7.1-6.37,1.12,1.12,0,0,0,.43-.92c-.42-5.62-1.91-10.88-5.67-15.24a11.69,11.69,0,0,0-9.21-4.38c.69,1,1.33,1.77,1.86,2.65A8.43,8.43,0,0,1,59.66,25a7.15,7.15,0,0,1-8,2,8.69,8.69,0,0,1-5.47-7.33,12.47,12.47,0,0,1,2.87-8.25c-7-3.06-14.82-1.76-18.62,5,2.5.47,5,1.13,6.24,3.53a8,8,0,0,1,.85,4.37,7.9,7.9,0,0,1-8.11,7.21C25.57,31.29,23.47,28.6,23,23c-3.36,2-5.4,5-7,8.46L11.7,29.64c2.42-5.5,6-9.69,11.53-12a3.79,3.79,0,0,0,2.07-2C28.22,10,32.6,6.17,39.09,5.3A24.88,24.88,0,0,1,52.56,7.54a2.5,2.5,0,0,0,1.58.21c6.57-2,12.16-.19,16.83,4.57,4.33,4.41,6.34,10,7.22,16,.1.71.2,1.42.3,2.17H82.1c-.74-2.3-1.43-4.48-2.18-6.81H86a21.58,21.58,0,0,1,0-12.46A35.89,35.89,0,0,1,91.27,0c8.42,2.69,15.8,9.85,20.8,20.22L117,18.07l3,10.93a22.22,22.22,0,0,1,.45-2.88c1-3.46,4-5.29,7.84-4.77A6.72,6.72,0,0,1,133.89,28a26.75,26.75,0,0,1-5.77,17.12c-.23.31-.48.6-.71.91a1.71,1.71,0,0,0-.14.27c12.66,8.67,15.68,21.59,16,36Zm-32.3-1.65a35.71,35.71,0,0,1,4.21-9.06c.22-.33.52-.8.43-1.11a35.08,35.08,0,0,0-4.32-10.11l-3,5.89-4.13-2.09L106.62,59c-2.79.46-5.48.87-8.14,1.39a1.71,1.71,0,0,0-1.12,1c-.68,2.64-1.31,5.3-1.82,8-.34,1.8-.45,3.65-.7,5.74,3.34-1.66,6.38-3.16,9.58-4.76-.1.92-.18,1.62-.26,2.33,0,.38-.1.76-.15,1.14-.89,6.18.65,11.53,5.45,15.72a24.58,24.58,0,0,0,9.14,5,2.08,2.08,0,0,0,1.75-.31c2.7-2.71,5.46-5.39,7.91-8.33a14.65,14.65,0,0,0,3.22-8c.14-1.41,0-2.84,0-4.42l6.8,2.21C136.66,65,133.61,55.49,124,49.91l-9.79,6.32a6.62,6.62,0,0,1,.92,1.41c.91,2.42,2.69,3.14,5.17,3.28a18.32,18.32,0,0,1,7.75,2.2l-2,3.91-6.91-1.72c.82,3.53,1.75,6.84,2.31,10.21s.76,6.82,1.13,10.3h-4.75c-.21-2.63-.42-5.16-.62-7.7l-.32,0c-.52,1.27-1,2.54-1.62,3.93l-4.34-1.44Zm1.42-46.26c-2.57,3.74-7.22,5.67-8.27,10.72a33.47,33.47,0,0,0,9.85-5.42,3.39,3.39,0,0,0,1.52-3.29c-.13-1.14.09-2.32,0-3.45-.35-2.77-.82-5.52-1.26-8.44L108.46,27c-.85-10.2-7.19-16.24-15.34-21.07A27.92,27.92,0,0,0,89.71,17.4c-.22,4.32,2.19,7.47,4.86,10.84H86.45c.4,2.05.81,3.85,3.07,4.52a8.17,8.17,0,0,1,2.31,1.44A19.06,19.06,0,0,1,98.91,45c.66-1.71,1.15-3,1.69-4.35a1.83,1.83,0,0,0-.5-2.3c-1.35-1.19-2.69-2.4-4.1-3.66l2-4,3.16,2,.45-.27c-1.33-3.34-2.67-6.68-4-10.11L101.21,20a32.91,32.91,0,0,1,5,13.89l.5.28,2.27-3,3.36,3.17ZM59.88,68a.72.72,0,0,0,.17-.22,2.69,2.69,0,0,0,.17-.55,16,16,0,0,1,8.4-11.74,1.55,1.55,0,0,0,.62-1.11,13.91,13.91,0,0,0-17.81-14C45.69,42,41.27,48,41.71,53.52c.17,0,.35.06.54.07A15.83,15.83,0,0,1,57.13,65.67c.42,1.69,1.18,2.31,2.75,2.29Zm32.45,45.65a11.53,11.53,0,1,0-11.45,11.55,11.66,11.66,0,0,0,11.45-11.55ZM88.61,59.37a12.38,12.38,0,0,0,4.88-15.74,13.3,13.3,0,0,0-11.76-8.41c-4.88-.4-8.6,1.82-11.35,5.76-.25.36-.49,1.1-.3,1.34a19.27,19.27,0,0,1,3.86,11.35,16.46,16.46,0,0,1,14.68,5.7Zm-12.53,27a2.7,2.7,0,0,0,.21-.49,16.19,16.19,0,0,1,10.78-13,1.21,1.21,0,0,0,.62-.92,26.72,26.72,0,0,0-.41-5.15A11.48,11.48,0,0,0,64.7,69.23a2.78,2.78,0,0,0,1,1.87c3,2.6,5.19,5.77,5.57,9.75.24,2.49.91,4.19,3.49,4.77A5.88,5.88,0,0,1,76.08,86.37Zm41.59,13a2.47,2.47,0,0,0-.36-.19,31,31,0,0,1-12.74-7.87,1.61,1.61,0,0,0-1.37-.24c-4.93,1.46-7.7,4.8-8.47,9.85-.62,4,1.69,8.69,5.48,11a11.35,11.35,0,0,0,12.62-.44c4.15-3,5.24-7.24,4.84-12.1ZM51.05,96.23c3.5-8.88,6.25-11.11,15.9-12.78-.08-.55-.16-1.11-.25-1.66a11.42,11.42,0,0,0-22.46-.7,4,4,0,0,0,.14,2.48A14.06,14.06,0,0,1,46,92.75a1.2,1.2,0,0,0,.52.94c1.47.88,3,1.68,4.55,2.54ZM65,109.94c1.81-6.64,6.27-10.82,13.19-12.35A11.43,11.43,0,0,0,64.6,88.51c-8,1.42-11.89,11.32-7,17.78a2.74,2.74,0,0,0,1,.73c2.1,1,4.22,1.92,6.41,2.91ZM52.73,67.62c-.92-6.17-7-10.27-13.46-9.12-7.83,1.4-11.83,10.89-7.33,17.41a1.89,1.89,0,0,0,.93.76c2.33.6,4.68,1.14,7.16,1.72A16.34,16.34,0,0,1,52.73,67.62Zm-48.1,62A9.36,9.36,0,0,0,13.82,139a9.23,9.23,0,1,0,.07-18.45,9.36,9.36,0,0,0-9.27,9.11ZM90,77.05a11.46,11.46,0,0,0-9.21,11.7c.33,5.42,4.63,10.28,9.38,10.6A16.4,16.4,0,0,1,101,86.69l-2.26-8.27L90,82.74ZM28,129.08c-.73,2.16.28,3,1.49,3.75a9.2,9.2,0,1,0-3.38-11.29,3.07,3.07,0,0,0,.09,1.84C26.76,125.42,27.44,127.44,28,129.08Zm27.32-17.77a9.36,9.36,0,0,0-8.41,6,2.33,2.33,0,0,0,.13,1.6,14.68,14.68,0,0,1,1.51,6.67,2.28,2.28,0,0,0,.55,1.51,8.55,8.55,0,0,0,6.74,2.69,9.22,9.22,0,0,0-.51-18.43Zm-32.83,6.94A13.34,13.34,0,0,1,30.14,112c-.14-1.76-.14-3.41-.42-5-.68-3.79-3.89-6.59-8-7.19a9.28,9.28,0,0,0-9.13,5.06,9,9,0,0,0,1.49,10.28,3,3,0,0,0,1.15.77c2.33.78,4.69,1.5,7.24,2.31ZM41.21,92.78a20.64,20.64,0,0,0,.32-2.66,9.05,9.05,0,0,0-6.13-8.25,9.31,9.31,0,0,0-10.07,2.69,9,9,0,0,0-1.14,10.21,2.82,2.82,0,0,0,1.06,1.08c1.46.8,3,1.51,4.57,2.32a17.08,17.08,0,0,1,11.4-5.38Zm2.13,21a14.52,14.52,0,0,1,6.6-6,1.7,1.7,0,0,0,.78-1.44c-.4-1.65-.67-3.48-1.59-4.82-3.9-5.7-11.55-5-15.86-.1a1.79,1.79,0,0,0-.07,1.38c.37,1.33,1,2.61,1.23,3.95a32.45,32.45,0,0,1,.28,4.07l8.64,2.92ZM98,55.6a5.61,5.61,0,0,0,.71,0c7.78-1.13,15-3.72,21.17-8.69,5.8-4.67,9.11-10.67,9.36-18.22.06-1.78-.73-2.73-2.2-2.78s-2.36.85-2.39,2.61a17.65,17.65,0,0,1-4.82,11.87c-5.25,5.82-12,9-19.52,10.61a1.9,1.9,0,0,0-1.28.81c-.45,1.2-.69,2.47-1,3.79ZM53.76,13.35a7.93,7.93,0,0,0-2.91,5.06,4,4,0,0,0,2.87,4.27A3.24,3.24,0,0,0,57.25,20a4.29,4.29,0,0,0-.39-2.85A32.28,32.28,0,0,0,53.76,13.35ZM29.44,21c-1.34,0-1.64.4-1.72,2.47s.74,3.26,2,3.3c1.55.06,3.18-1.7,3.22-3.46,0-1.4-1.29-2.27-3.52-2.32ZM131.62,99.86c.34,1.71.61,1.88,2,1.36C133.46,99.63,133.13,99.39,131.62,99.86Z"/>
      </g>
    </g>
  </g>
</svg>
