<svg xmlns="http://www.w3.org/2000/svg" viewBox="0 0 145.48 168.57">
  <defs>
    <style>
      .cls-1 {
        fill: #fff;
      }

      .cls-2 {
        fill: #1d1d1b;
      }

      .cls-3 {
        fill: #fdc503;
      }

      .cls-4 {
        fill: #fdc500;
      }
    </style>
  </defs>
  <g id="Livello_2" data-name="Livello 2">
    <g id="Livello_1-2" data-name="Livello 1">
      <g>
        <path class="cls-1" d="M92.37,42.07l-.36.45,5.14,4.81.33-.36Z"/>
        <path d="M13,16.27l-1.51,1.12c0-.64-.17-1.45,0-1.54,1.24-.63,2.92-1.89,3.81-1.49,4.24,1.91,6.78-1.35,10-2.71a16.77,16.77,0,0,1,5.05-1.41A3.33,3.33,0,0,1,34.19,13a3.19,3.19,0,0,0,3.34,2.74c2.8-.14,3.91,2.35,5.85,3.54.22.14.16,1,0,1.41a7.84,7.84,0,0,0,.44,6.23,14.08,14.08,0,0,1,.92,3.64c.07.28.07.71.26.82,2.54,1.56,1.94,4.5,3,6.73a6.63,6.63,0,0,1,.17,2.83c0,1.35-.18,2.69-.31,4.52l-1.07.78.13.27,2.19-1c.28,2.86.51,5.59.83,8.32.17,1.38.5,2.74.75,4.11.34,1.89.77,3.77,1,5.68.52,4.42.93,8.85,1.4,13.28a9.35,9.35,0,0,1,.26,1.54c-.26,4.77,1.77,9.09,2.56,13.65.51,3,.58,6,.93,9.07a5,5,0,0,0,.84,2.51c2,2.44,4,5,7.44,5.58a47,47,0,0,1,4.94,1.5l-1.56.57a2.43,2.43,0,0,0,.62.25l9.73,1.3c4.84.65,6.87,2.52,7.47,7.4.41,3.37.44,6.79.71,10.18a45.5,45.5,0,0,0,.82,6.17c.15.67,1.08,1.28,1.79,1.67,2.16,1.19,4.28,2.07,7,1.46.72-.16,2.4,1,3.87.72,1.1-.18,2.23-.2,3.31-.29.3-1.25.51-2.46.89-3.61.45-1.36,2.28-1.65,3.72-.38s2.43,1.83,4.26.48c1.08-.79,2.87-.59,3.77-.74L124,123.13c-1.53,1-2.28,1.35-3.34-.82a33.18,33.18,0,0,0-5.38-7.22c-1.54-1.7-1.69-3.5-1.51-5.56.26-3,.34-6,.65-9.06.11-1.12.8-2.18,1-3.3.23-1.42.23-2.87.3-3.86-1-.41-1.81-.52-2.25-1C112.19,91,111,89.49,109.9,88c-.9-1.16-1.18-2.28,0-3.57a2.17,2.17,0,0,0-.05-2.08c-4.62-5.4-5.56-12.35-8-18.66-.35-.89-1.11-1.7-1.2-2.6a7.24,7.24,0,0,1,.44-3.71c.27-.56,1.69-.57,3.13-1a19.24,19.24,0,0,0-1.64-3.7,25.22,25.22,0,0,0-3.19-3.27l.42-.43c3.1,2.92,6.38,5.66,9.25,8.78,8.09,8.75,16.2,17.5,23.94,26.55,9.37,11,12.7,24,12.49,38.24A65.32,65.32,0,0,1,141,145.51c-3,7.73-2.19,14.68,2.78,21.23a11.82,11.82,0,0,1,.68,1.14c0,.05,0,.14-.09.69-1.54-2-2.93-3.79-4.2-5.62-2.31-3.3-2.39-3.33-5.27-.67-.44.4-.94.72-1.36,1l3.61,4.29-.35.47c-1.65-1-3.27-2.11-4.95-3.1a22,22,0,0,0-12.69-2.83c-13.37.57-26.32-1.36-38.25-8a57.5,57.5,0,0,1-20.25-19.2c-3.86-5.92-7.82-11.81-11.31-18a69,69,0,0,1-4.74-11.47c-.61-1.75-.46-3.75-.79-5.61-.24-1.36-.7-2.68-1.1-4.16l1.67.3c0-.24.09-.48.09-.48-1.15-.25-1.24-.92-1.34-2.06-.43-5.27-1.25-10.5-1.64-15.77-.32-4.22-.18-8.48-.38-12.71a15,15,0,0,0-.93-3.26c-.68-2.36-1.47-4.7-2-7.1a3.35,3.35,0,0,1,1.06-2.27,25.58,25.58,0,0,0,3.22-3.48l-5.6,3.87-4.76-2.58,2.28-1.82c-1.9-1.88-.51-3.84-.08-5.67s1.21-3.41-.29-5.2c-.51-.61,0-2-.13-3a6.72,6.72,0,0,0-.72-2.6l.07,2.36-.3,0c-.27-1.58-.55-3.15-.78-4.73a7.3,7.3,0,0,0-6.89-6c-3.95-.19-7.73-.24-11.43,1.74-2.55,1.37-6,.32-6.9-1.57a5.86,5.86,0,0,1,0-2.33c.67.22,1.52.26,2,.7,1.78,1.74,3.76,1.76,6.46-.19-1.21.2-2.43.77-3.32.45s-1.5-1.53-2.08-2.18l3.55-3.39ZM74.53,131.63l.08.06a37.48,37.48,0,0,0-2-3.45c-1.47-2.08-3.61-3.73-3.78-6.61,0-.59-.77-1.2-1.29-1.69-.75-.71-1.6-1.31-2.4-2a10.85,10.85,0,0,1,3.8,2.23c4.3,3.69,8.6,7.37,12.82,11.14a13.87,13.87,0,0,1,1.89,2.76l-.5.34-1.1-.47-.32.53,2.81,2.15.68-.58c-.79-4.76-1.46-9.53-2.44-14.25a12,12,0,0,0-2.19-4.5c-2.51-3.37-6.17-4.5-10.21-4.62-3.37-.09-6.64-.52-9.67-2.62l2.65,4.07-3.08-.41c1.34,2.09,3.82,2.74,4.13,5.32.15,1.3,1.5,2.46,2.52,4l-1.77-.69,6.33,6.93-.26.29-2.8-1.69c4.19,6.87,13.76,16,16.26,15.79L83.56,141l.59-.26,2.49,1.16a5.56,5.56,0,0,0-1.76-2Zm46.16-13.21c2-.38,4.32-4.18,3.7-5.35-.3-.56-1.07-1.26-1.6-1.24-2,.08-4.4-.12-4.49,3,0,.79-.19,1.83.22,2.31A7.12,7.12,0,0,0,120.69,118.42Zm6.88,37.86c2.3-1.52,4.37-3.28,6.75-4.36a8.72,8.72,0,0,0,5.53-7.17c-3.2,2.57-6.25,5-9.28,7.46C129.23,153.3,127.38,154,127.57,156.28Zm-4.26-36.51c1.41-.06,2.77,3.06,4.1-.19a2.84,2.84,0,0,0,.23-1.25,27.14,27.14,0,0,0-.43-3.94c-.1-.45-.79-.78-.89-.87ZM44.81,75.46l.89,8.12C47.26,77.7,47.05,76.14,44.81,75.46Zm92.34,79.31-.58-.87c-2.84,1.39-4.71,4-7,6.18ZM35.32,17.12c3.58,2.14,4,5.76,4.57,9.51C40.65,22.21,39.54,18.89,35.32,17.12Zm10.5,45.06-.6.33,3.76,7,.7-.38ZM22.07,19.87,29.39,18l-4.46-.18.26-.8-.38-.23Zm116.57,137.7-.66-.86-6.06,4.92.38.47ZM29.51,22.49l.46-.31-.68-2.8-3,.18,0,.54Zm25.9,75-2.3-3.46C52.71,96.23,52.6,97.63,55.41,97.53Z"/>
        <path class="cls-2" d="M7.33,10.34a9.26,9.26,0,0,1-1.55.25c-2.25,0-4.35-.4-5.46-2.69-.81-1.66,0-4.58,1.61-6.13S6.63-.61,8.33.57a14.41,14.41,0,0,1,4,4.08c1.36,2.19.62,3.72-1.79,4.73-1,.43-2.08.76-3.13,1.14Z"/>
        <path class="cls-2" d="M.6,36.13C3,37.57,3,34.41,5,34.25a5.76,5.76,0,0,1,1.53,1,2.67,2.67,0,0,1,.59,1.9c-.05.29-1.05.56-1.64.63C4.35,38,3.17,38,2,38,.55,38.1.1,37.49.6,36.13Z"/>
        <path class="cls-2" d="M76.71,28.88l5.91,4.56,0,.06-5.79-4.71Z"/>
        <path class="cls-2" d="M92.37,42.07,97.48,47l-.33.36L92,42.52Z"/>
      </g>
      <path class="cls-3" d="M81.15,106A9.35,9.35,0,0,1,75,108.2a15.16,15.16,0,0,1-4.18-.9,14.33,14.33,0,0,0-4.1-.9,2.59,2.59,0,0,0-2.26,1.39,1.7,1.7,0,0,1-1-1.05,3,3,0,0,1-.38-1.42,4,4,0,0,1,.31-1.55,4,4,0,0,1,2.16-2.09,4.28,4.28,0,0,1,1.56-.29,6.7,6.7,0,0,1,3.13,1l.91.58q.53.33,1.11.78c.67.46,1.19.83,1.55,1.11a6.13,6.13,0,0,0,.68.49,5.09,5.09,0,0,0,2.46.9,3.39,3.39,0,0,0,1.19-.21,2.91,2.91,0,0,0,1-.59,3.24,3.24,0,0,0,.68-.88,2.44,2.44,0,0,0,.26-1.1q0-2.74-4.14-3.86l-3.86-1-3.86-1A6.24,6.24,0,0,1,64,91.52a6.42,6.42,0,0,1,2.71-5.39,9.57,9.57,0,0,1,5.91-1.85c.53,0,1,0,1.51.06a10,10,0,0,1,1.37.19l2.63.43a9.13,9.13,0,0,0,1.3.16h.42a1.2,1.2,0,0,0,.35,0l.67-.07a3.53,3.53,0,0,0,.61-.1l1.29-.21c.18,0,.28.06.28.18a5.61,5.61,0,0,1-1.32,3.61,4.21,4.21,0,0,1-3.34,1.77q-2.27,0-2.85-.9v-.45q0-3-3.51-3a4.89,4.89,0,0,0-2.4.56,2.13,2.13,0,0,0-1.25,1.95q0,2.3,4,3.3a73.3,73.3,0,0,1,7.51,2,6.5,6.5,0,0,1,4,6.36A7.28,7.28,0,0,1,81.15,106Z"/>
      <path class="cls-4" d="M105.34,94a9.55,9.55,0,0,1-1.89.77c-.82.25-1.84.53-3,.83a21.85,21.85,0,0,0-2.92.92,12.13,12.13,0,0,0-2.33,1.24c-.88.6-1.32,1-1.32,1.18V100q0,.63,0,1.5v2.64a5.55,5.55,0,0,0,.94,3.51H86.57c.67-.55,1-1.72,1-3.51V87.59a3.79,3.79,0,0,0-.28-1.39c-.19-.47-.37-.92-.56-1.36h15.68a6,6,0,0,1,1.6.35q3.9,1.14,3.9,4.73A4.44,4.44,0,0,1,105.34,94Zm-10-7.64H93.87V96.7q6.5-3.9,6.5-6.85Q100.37,86.34,95.36,86.34Z"/>
    </g>
  </g>
</svg>
